<?xml version="1.0" encoding="utf-8"?>
<!-- Svg Vector Icons : http://www.onlinewebfonts.com/icon -->
<!DOCTYPE svg PUBLIC "-//W3C//DTD SVG 1.1//EN" "http://www.w3.org/Graphics/SVG/1.1/DTD/svg11.dtd">
<svg version="1.1" xmlns="http://www.w3.org/2000/svg" xmlns:xlink="http://www.w3.org/1999/xlink" x="0px" y="0px" viewBox="0 0 1000 1000" enable-background="new 0 0 1000 1000" xml:space="preserve">
<metadata> Svg Vector Icons : http://www.onlinewebfonts.com/icon </metadata>
<g><path d="M930.7,739.8c0,0-25.5,83.2-87.8,76.4c-24.6-2.7-46.1-22.6-67.9-45.7c59.8-73.9,95.7-168,95.7-270.5c0-237.7-192.7-430.4-430.4-430.4C202.7,69.6,10,262.3,10,500c0,237.7,192.7,430.4,430.4,430.4c101.9,0,195.5-35.5,269.2-94.7C742.9,860,766,899,852.1,901.4C973.5,904.8,990,797,990,797L930.7,739.8L930.7,739.8z M442.6,154.2c64.2,0,116.3,52.1,116.3,116.3c0,64.2-52,116.3-116.3,116.3c-64.2,0-116.3-52-116.3-116.3C326.3,206.3,378.3,154.2,442.6,154.2L442.6,154.2z M484.7,499.8c0,24.5-19.8,44.3-44.3,44.3c-24.5,0-44.3-19.9-44.3-44.3s19.8-44.3,44.3-44.3C464.8,455.5,484.7,475.3,484.7,499.8L484.7,499.8z M213,616.8c-64.2,0-116.3-52.1-116.3-116.3c0-64.2,52.1-116.3,116.3-116.3c64.2,0,116.3,52.1,116.3,116.3C329.3,564.7,277.2,616.8,213,616.8L213,616.8z M442.6,845.8c-64.2,0-116.3-52.1-116.3-116.3c0-64.2,52-116.3,116.3-116.3c64.2,0,116.3,52.1,116.3,116.3C558.9,793.7,506.8,845.8,442.6,845.8L442.6,845.8z M671,616.8c-64.2,0-116.3-52.1-116.3-116.3c0-64.2,52.1-116.3,116.3-116.3c64.2,0,116.3,52.1,116.3,116.3C787.2,564.7,735.2,616.8,671,616.8L671,616.8z"/></g>
</svg>